<svg width="32" height="32" viewBox="0 0 32 32" fill="none" xmlns="http://www.w3.org/2000/svg">
<path d="M24.003 8.92288C19.0427 12.0155 16.002 17.4466 16.002 23.3207V32.0001C25.9024 26.2856 32.0039 15.7187 32.0039 4.28589L24.003 8.92288Z" fill="url(#paint0_linear_1038_471)"/>
<path d="M7.51415 8.61943L0 4.28174C0 15.7146 6.09752 26.2775 15.998 31.9959V23.3165C15.998 17.2549 12.7657 11.6522 7.51415 8.61943Z" fill="white"/>
<path d="M24.4899 8.61953C24.3223 8.7153 24.1666 8.82305 24.003 8.92281L32.004 4.28582C22.1035 -1.42861 9.90451 -1.42861 0.00402832 4.28582L7.51819 8.62352C12.7697 11.6563 19.2383 11.6523 24.4899 8.62352V8.61953Z" fill="white"/>
<defs>
<linearGradient id="paint0_linear_1038_471" x1="30.6152" y1="16.4849" x2="16.8998" y2="19.9168" gradientUnits="userSpaceOnUse">
<stop stop-color="white"/>
<stop offset="1" stop-color="#C4C5C5"/>
</linearGradient>
</defs>
</svg>
